Coordinates
version=1
nRows=28
nColumns=23
inDegrees=yes

Units are S.I. units (second, meters, Newtons, ...)
If the header above contains a line with 'inDegrees', this indicates whether rotational values are in degrees (yes) or radians (no).

endheader
time	pelvis_tilt	pelvis_list	pelvis_rotation	pelvis_tx	pelvis_ty	pelvis_tz	hip_flexion_r	hip_adduction_r	hip_rotation_r	knee_angle_r	knee_angle_r_beta	ankle_angle_r	subtalar_angle_r	mtp_angle_r	hip_flexion_l	hip_adduction_l	hip_rotation_l	knee_angle_l	knee_angle_l_beta	ankle_angle_l	subtalar_angle_l	mtp_angle_l
     22.50000000	     -3.30454642	     -8.44676296	     -9.18829296	      2.10020776	      0.93187882	      1.05555659	     29.17850472	     12.42056979	     -6.98369419	     49.58995814	      0.86550805	     20.68703683	      1.31560139	      0.00000000	      7.42213361	    -12.95456150	     -8.65750139	     90.37097624	      1.57727108	     -5.66081814	    -12.94022353	      0.00000000
     22.50666667	     -3.95454655	     -7.76107558	     -9.29377175	      2.09788902	      0.92794690	      1.05550067	     29.68688521	     11.79622933	     -6.47679627	     51.06555971	      0.89126215	     22.14593088	      1.61560091	      0.00000000	     10.30595731	    -12.35995317	     -7.77088009	     92.62129399	      1.61654654	     -4.98998258	    -12.78735801	      0.00000000
     22.51333333	     -4.01841627	     -7.49058631	     -9.18876989	      2.09600074	      0.92562348	      1.05519893	     29.20124244	     11.42137336	     -6.20626226	     51.97744865	      0.90717762	     23.48203870	      1.87277361	      0.00000000	     12.44399498	    -12.13916318	     -6.83640505	     94.53979874	      1.65003076	     -4.38959238	    -12.66676762	      0.00000000
     22.52000000	     -3.75629151	     -7.45323433	     -8.99816181	      2.09440243	      0.92452492	      1.05482878	     28.08165637	     11.25409806	     -5.94854533	     52.41939896	      0.91489110	     24.61325257	      1.90361774	      0.00000000	     14.14465920	    -12.12344011	     -5.90547265	     96.16058813	      1.67831887	     -3.82930937	    -12.62618930	      0.00000000
     22.52666667	     -3.93078664	     -7.17553653	     -8.76069634	      2.09277063	      0.92317048	      1.05431340	     27.43784498	     10.67939436	     -6.04724677	     52.86547885	      0.92267667	     25.68189046	      2.71906626	      0.00000000	     16.42043705	    -11.85848960	     -4.95331089	     97.65038516	      1.70432074	     -3.19541547	    -12.33380642	      0.00000000
     22.53333333	     -3.76383198	     -7.12470712	     -8.46459235	      2.09141476	      0.92306895	      1.05386644	     26.16519781	     10.36482372	     -6.07789106	     52.86792712	      0.92271940	     26.49714496	      3.05841432	      0.00000000	     18.20761771	    -11.83689673	     -4.07350677	     98.80921017	      1.72454605	     -2.69286891	    -12.22064901	      0.00000000
     22.54000000	     -3.60589884	     -7.06542357	     -8.19235433	      2.09021928	      0.92352992	      1.05341694	     24.77726300	     10.03541897	     -6.12277194	     52.64597544	      0.91884561	     27.18570711	      3.51448013	      0.00000000	     19.93699062	    -11.80253601	     -3.29630636	     99.70316051	      1.74014843	     -2.15444391	    -12.08412054	      0.00000000
     22.54666667	     -3.43606118	     -7.03450526	     -7.88414690	      2.08929970	      0.92462838	      1.05291472	     23.23249088	      9.67194569	     -6.30702662	     52.18557508	      0.91081011	     27.67755244	      4.21117801	      0.00000000	     21.58204671	    -11.78035970	     -2.56337188	    100.32086213	      1.75092935	     -1.60954204	    -11.86971156	      0.00000000
     22.55333333	     -3.29412480	     -6.98441033	     -7.62737868	      2.08851632	      0.92623775	      1.05253281	     21.61565928	      9.36429742	     -6.37742656	     51.51088741	      0.89903459	     28.02892517	      4.70719920	      0.00000000	     23.16241146	    -11.75389785	     -1.96248667	    100.67106454	      1.75704154	     -1.04943367	    -11.75661573	      0.00000000
     22.56000000	     -3.15147263	     -6.92700990	     -7.39106819	      2.08793012	      0.92841908	      1.05220196	     19.88274635	      9.09035741	     -6.39396302	     50.61616321	      0.88341870	     28.20907509	      5.24544023	      0.00000000	     24.63952515	    -11.73026897	     -1.47733074	    100.74697351	      1.75836640	     -0.48998817	    -11.59502327	      0.00000000
     22.56666667	     -3.09518857	     -6.79540697	     -7.22276763	      2.08754795	      0.93098277	      1.05198046	     18.17064294	      8.80314004	     -6.30529439	     49.56216282	      0.86502293	     28.28384037	      5.66920179	      0.00000000	     26.09310437	    -11.66507558	     -1.16957470	    100.55910152	      1.75508741	      0.13280132	    -11.51151241	      0.00000000
     22.57333333	     -2.89777881	     -6.67606867	     -7.07107180	      2.08747605	      0.93433769	      1.05189003	     16.17972459	      8.56230638	     -6.15549828	     48.26243470	      0.84233839	     28.22543292	      6.14005502	      0.00000000	     27.23552825	    -11.63907648	     -1.00887227	    100.05895893	      1.74635828	      0.71659288	    -11.30943959	      0.00000000
     22.58000000	     -2.99720183	     -6.40859818	     -6.95213206	      2.08743477	      0.93764669	      1.05185744	     14.51987022	      8.24146854	     -5.93536221	     46.92471130	      0.81899071	     28.04735110	      6.39169006	      0.00000000	     28.63845856	    -11.46532793	     -0.95161633	     99.35745253	      1.73411468	      1.30945024	    -11.24244247	      0.00000000
     22.58666667	     -2.98915087	     -6.12620969	     -6.87239477	      2.08773545	      0.94165173	      1.05190150	     12.64853063	      7.92532078	     -5.65410910	     45.37888168	      0.79201090	     27.67061542	      6.60075491	      0.00000000	     29.74310471	    -11.29467028	     -1.05221428	     98.35901367	      1.71668864	      1.91818805	    -11.12975353	      0.00000000
     22.59333333	     -3.02596863	     -5.76692257	     -6.81298780	      2.08818780	      0.94597424	      1.05206083	     10.79684711	      7.58006010	     -5.30202886	     43.72244761	      0.76310067	     27.06678708	      6.67570918	      0.00000000	     30.77154105	    -11.07338748	     -1.28663949	     97.12088290	      1.69507918	      2.51409452	    -11.03552704	      0.00000000
     22.60000000	     -3.06375334	     -5.37149801	     -6.75892709	      2.08886257	      0.95070028	      1.05229098	      8.90640274	      7.21771027	     -4.93658779	     41.93351317	      0.73187787	     26.16252171	      6.61941990	      0.00000000	     31.66332839	    -10.82788599	     -1.62230445	     95.63786963	      1.66919571	      3.10383602	    -10.94342033	      0.00000000
     22.60666667	     -3.31679223	     -4.80459538	     -6.75539857	      2.08961123	      0.95536272	      1.05258136	      7.32823235	      6.64325845	     -4.69783223	     40.21727038	      0.70192378	     24.91753865	      6.64308332	      0.00000000	     32.67904704	    -10.44600388	     -2.12638698	     93.95053804	      1.63974622	      3.69258729	    -10.87321041	      0.00000000
     22.61333333	     -3.07661015	     -4.48878098	     -6.63730842	      2.09084440	      0.96116177	      1.05290676	      4.97737342	      6.45237771	     -4.15755218	     38.00916192	      0.66338502	     23.33695551	      6.03233708	      0.00000000	     32.96652591	    -10.28517118	     -2.57725337	     91.99550169	      1.60562440	      4.27814558	    -10.66876993	      0.00000000
     22.62000000	     -3.05476112	     -3.99541443	     -6.51947324	      2.09209070	      0.96677104	      1.05316097	      2.97381845	      6.04533362	     -3.74992583	     35.91957615	      0.62691487	     21.43513199	      5.39548489	      0.00000000	     33.41422637	     -9.91842623	     -3.11474598	     89.86771760	      1.56848756	      4.86449916	    -10.48246623	      0.00000000
     22.62666667	     -3.00704239	     -3.38441927	     -6.28296754	      2.09358906	      0.97247202	      1.05316121	      1.00531918	      5.35624698	     -3.88128934	     33.90405001	      0.59173730	     19.45709995	      5.38084050	      0.00000000	     33.72538790	     -9.31867977	     -3.65144419	     87.51493925	      1.52742383	      5.27271162	    -10.52669325	      0.00000000
     22.63333333	     -2.89631598	     -2.81184959	     -6.06492616	      2.09520397	      0.97834047	      1.05323027	     -1.03591443	      4.76898630	     -3.88425595	     31.80622277	      0.55512331	     17.12883599	      5.03964320	      0.00000000	     33.84537652	     -8.80218749	     -4.26965942	     85.00294180	      1.48358121	      5.72503457	    -10.36422454	      0.00000000
     22.64000000	     -3.25575818	     -2.03313262	     -5.90074966	      2.09662798	      0.98339284	      1.05322758	     -2.28355098	      3.88317354	     -4.25802996	     30.18003351	      0.52674095	     14.75725099	      5.08610980	      0.00000000	     34.43008588	     -8.08314371	     -4.98083226	     82.37677901	      1.43774602	      6.12506204	    -10.13391524	      0.00000000
     22.64666667	     -2.75192861	     -1.56994274	     -5.50955597	      2.09861108	      0.98977875	      1.05302395	     -4.82714013	      3.47690988	     -4.24961268	     27.82533915	      0.48564378	     12.03452410	      4.33605354	      0.00000000	     33.90794375	     -7.52846569	     -5.50227224	     79.52217139	      1.38792372	      6.47045745	     -9.90361639	      0.00000000
     22.65333333	     -2.73567869	     -0.91179314	     -5.12784824	      2.10042168	      0.99520223	      1.05262834	     -6.52892555	      2.75049944	     -4.80953153	     26.03466878	      0.45439069	      9.38832805	      4.19876285	      0.00000000	     33.89038496	     -6.74268811	     -6.04887762	     76.57893139	      1.33655449	      6.74015113	     -9.66273287	      0.00000000
     22.66000000	     -2.71193928	     -0.29171413	     -4.77234474	      2.10220703	      1.00046001	      1.05222191	     -8.15326116	      2.08137237	     -5.35424063	     24.35326799	      0.42504471	      6.62938779	      3.99961173	      0.00000000	     33.77838068	     -6.00319548	     -6.62294223	     73.51609899	      1.28309798	      6.95917268	     -9.24872905	      0.00000000
     22.66666667	     -2.83048018	      0.34356413	     -4.35733841	      2.10394487	      1.00527704	      1.05157479	     -9.46350434	      1.37353096	     -6.14165575	     22.97295906	      0.40095377	      3.97478670	      3.94902629	      0.00000000	     33.77734837	     -5.17488293	     -7.12696897	     70.36066867	      1.22802533	      7.13977734	     -8.71427442	      0.00000000
     22.67333333	     -3.24577440	      0.90705670	     -4.07819165	      2.10542975	      1.00941273	      1.05105798	    -10.19989380	      0.69742078	     -6.95323524	     22.04302517	      0.38472337	      1.34199328	      4.04890422	      0.00000000	     34.04672463	     -4.52535318	     -7.73493276	     67.15576705	      1.17208925	      7.21291580	     -8.01808193	      0.00000000
     22.68000000	     -3.29531978	      1.41075868	     -3.62730680	      2.10721049	      1.01381116	      1.05023018	    -11.41105932	      0.13768889	     -7.81073157	     20.96123680	      0.36584260	     -1.25153908	      3.97769954	      0.00000000	     33.83097808	     -3.75210567	     -8.15544935	     63.82068990	      1.11388117	      7.27705261	     -7.26929093	      0.00000000
